<?xml version="1.0" encoding="UTF-8"?> <svg xmlns="http://www.w3.org/2000/svg" id="Ebene_1" data-name="Ebene 1" viewBox="0 0 39.33 39.33"><defs><style> .cls-1 { fill: #1b1a18; } </style></defs><path class="cls-1" d="M19.66,0C8.8,0,0,8.8,0,19.66s8.8,19.66,19.66,19.66,19.66-8.8,19.66-19.66S30.52,0,19.66,0ZM31.93,13.05s0,.04,0,.06c.12,0,.24,0,.35,0,.52,0,.76-.04.76.11,0,.14-.11.18-1.25.24-.01.02-.03.05-.04.07.07,0,.15,0,.22,0,.45,0,.65-.03.65.09,0,.13-.1.16-1.13.2-.11,0-.2,0-.28,0-.02,0-.03,0-.05,0-.49,0-.88-.19-1.1-.19s-.35,0-.76.17c-.4.16-1.71.66-2.34.64-.63-.02-1.24-.24-1.6-.25-.36,0-.43.07-.93.07s-.93-.15-1.23-.14c-.29,0-.51.23-.59.43-.08.21-.27.74-.53,1.48-.26.75-.31.95-.31,2,0,.66.25,1.38.44,2.18.08.12.16.24.22.35.76,1.34,1.22,2.27,1.47,3.37.25,1.13.45,1.48.88,2.16.23.37.5.67.75.96.21.24.42.47.58.72.35.54.53,1.14.75,2,.21.82.41,1.36.44,1.46.03.09.15.2.31.3.15.09.38.19.5.22.08.02.3.02.46.03.1,0,.19,0,.23,0,.03,0,.05,0,.07,0,.05,0,.1-.01.22.01.09.02.14.05.17.1.04.06.03.12.01.17.05.05.04.1.03.14.03.05,0,.11-.04.15.02.05.04.13.02.19-.02.07-.11.13-.21.17,0,.02,0,.03,0,.05l-.31.21s-.05-.01-.07-.02c-.06-.02-.12-.04-.29.02-.09.03-.17.05-.25.05-.17,0-.32-.06-.46-.11-.08-.03-.16-.06-.23-.07-.1-.02-.16.01-.23.05-.09.05-.2.1-.36.02-.15-.03-.26-.2-.3-.47-.03-.23-.14-.39-.23-.51-.11-.14-.15-.2-.23-.5-.09-.29-.27-.6-.55-1.04-.14-.21-.31-.43-.48-.63-.18-.22-.37-.44-.51-.67-.15-.25-.23-.42-.31-.58-.06-.12-.1-.22-.17-.34-.21-.33-.49-.7-.91-1.19-.35-.4-.77-1.15-1.11-1.76-.04-.07-.08-.14-.12-.21-.03.09-.06.19-.09.28-.38,1.11-.39,1.51-.38,2.33,0,.81.24,1.48.26,2.13.02.65-.16,1.27-.4,2.07-.25.81-.36,1.36-.39,1.48-.02.12.03.3.11.46.08.16.23.37.32.47s.49.33.58.4c.09.07.1.02.24.16.14.14.05.2-.02.27.05.11-.04.09-.04.15s-.1.06-.1.06c0,0-.02.14-.07.19-.05.05-.27,0-.27,0,0,0,0,.07-.04.11l-.19.02c-.15-.06-.07-.18-.41-.24-.36-.07-.51-.41-.71-.59-.2-.18-.37,0-.53-.24-.11-.1-.1-.28,0-.49.1-.22.1-.42.08-.59-.02-.17-.02-.23.06-.52.08-.29.09-.67.08-1.2,0-.53-.17-1.11-.17-1.62s.07-.72.07-1.03-.03-.75-.16-1.5c-.13-.76,0-2.26,0-2.82,0-.45-.11-.68-.16-.75-.04.08-.15.31-.16.75,0,.56.13,2.06,0,2.82-.13.76-.16,1.19-.16,1.5s.07.52.07,1.03-.16,1.09-.17,1.62c0,.53,0,.9.08,1.2.08.29.08.35.06.52-.02.17-.02.37.08.59.1.22.11.39,0,.49-.16.24-.33.06-.53.24-.2.18-.34.52-.71.59-.34.06-.26.19-.41.24l-.19-.02s-.04-.11-.04-.11c0,0-.23.05-.27,0-.05-.05-.07-.19-.07-.19,0,0-.1,0-.1-.06s-.09-.04-.04-.15h0c-.07-.08-.16-.13-.02-.27.14-.14.15-.09.24-.16.09-.07.48-.3.58-.4s.25-.31.32-.47c.08-.16.14-.34.11-.46-.02-.12-.14-.68-.39-1.48-.25-.8-.42-1.42-.4-2.07.02-.65.25-1.32.26-2.13,0-.81,0-1.22-.38-2.33-.03-.09-.06-.19-.09-.28-.04.07-.08.14-.12.21-.34.6-.76,1.36-1.11,1.76-.43.49-.71.85-.91,1.19-.07.11-.12.22-.17.34-.07.15-.15.33-.31.58-.14.23-.33.45-.51.67-.17.2-.35.41-.48.63-.28.45-.47.76-.55,1.04-.09.29-.12.35-.23.5-.09.12-.2.28-.23.51-.03.27-.14.44-.31.48-.15.07-.26.02-.35-.03-.07-.04-.13-.07-.23-.05-.07.01-.15.04-.23.07-.14.05-.29.11-.46.11-.08,0-.17-.01-.25-.05-.18-.07-.24-.05-.29-.02-.02,0-.04.02-.07.02l-.31-.21s0-.04,0-.05c-.1-.04-.2-.1-.21-.17-.01-.06,0-.14.02-.19-.04-.04-.06-.1-.03-.16-.02-.04-.03-.08.03-.14-.01-.05-.02-.12.01-.17.03-.05.09-.08.17-.1.12-.03.17-.02.22-.01.02,0,.04,0,.07,0,.04,0,.13,0,.23,0,.16,0,.38-.01.46-.03.13-.03.36-.13.5-.22.16-.1.28-.22.31-.3.04-.1.23-.64.44-1.46.22-.85.39-1.46.75-2,.16-.25.37-.48.58-.72.25-.29.52-.59.75-.96.43-.68.63-1.03.88-2.16.25-1.1.7-2.04,1.47-3.37.06-.11.14-.23.22-.35.18-.79.44-1.52.44-2.18,0-1.05-.06-1.26-.31-2-.26-.75-.45-1.28-.53-1.48-.08-.21-.29-.42-.59-.43-.29,0-.73.14-1.23.14s-.57-.08-.93-.07c-.36,0-.97.23-1.6.25-.63.02-1.93-.48-2.34-.64-.4-.16-.54-.17-.76-.17s-.61.2-1.1.19c-.02,0-.03,0-.05,0-.08,0-.17,0-.28,0-1.03-.05-1.13-.08-1.13-.2,0-.13.21-.09.65-.09.07,0,.14,0,.22,0-.02-.02-.03-.04-.04-.07-1.14-.05-1.26-.09-1.25-.24,0-.15.24-.11.76-.11.11,0,.23,0,.35,0,0-.02,0-.04,0-.06-1.06-.05-1.18-.1-1.17-.24,0-.16.26-.11.81-.12.11,0,.23,0,.34,0,0-.03,0-.06,0-.09-.88-.07-.97-.12-.97-.25,0-.15.25-.1.77-.09.32,0,.69,0,.93,0-.08-.05-.17-.09-.25-.14-.17-.11-.22-.37-.18-.44.17-.16.2.05.56.23.27.26.4.15.83.59.37.2,1.03.3,1.28.29.27,0,1.38-.14,1.93-.11.55.03,1.06.3,1.46.31.02,0,.04,0,.06,0-.03-.01-.05-.03-.08-.04-.11-.05-.2-.1-.36-.15-.14-.04-.35-.07-.58-.09-.31-.03-.67-.07-1.01-.18-.42-.12-1.12-.59-2.04-1.35-.33-.27-.45-.32-.64-.38-.07-.02-.18-.03-.32-.04-.22-.01-.5-.03-.79-.13-.01,0-.03-.01-.04-.02-.09-.03-.18-.06-.27-.09-.97-.37-1.12-.44-1.05-.63.03-.07.08-.1.15-.1-.41-.18-.48-.27-.43-.41.05-.12.15-.13.33-.07-.21-.1-.28-.18-.28-.26l.15-.19c.1-.01.25.04.46.11.06.02.19.07.19.07-.4-.18-.51-.28-.47-.41l.1-.12c.1-.03.25.02.48.11.08.03.17.06.27.1.18.06.4.14.64.22,0,0-.02-.02-.03-.03-.14-.17-.12-.48-.03-.56,0,0,.01,0,.02-.01.18-.08.25.02.32.14.05.07.11.16.21.27,0,0,0,.01.01.02.07.13.14.2.21.27.11.1.23.22.39.54.29.3.87.59,1.09.65.08.02.23.06.42.1.44.1,1.1.26,1.46.4.28.11.52.28.74.43.19.13.38.26.55.32.21.08.4.1.64.12.17.02.36.04.59.09.58.11,1.03.1,1.33.08.29-.02.5.04.72.1.04.01.09.02.13.03.09.02.17.06.25.09.17.07.32.14.62.11.39-.04.41-.04.54-.05h.07s.02,0,.04,0c.02,0,.04-.02.07-.03.19-.07.27-.23.28-.46,0-.24-.03-.28-.03-.28,0,0-.13-.17-.21-.33-.04-.08-.07-.15-.1-.22-.17-.09-.17-.31-.18-.42-.01-.13-.21-.28-.21-.46s.1-.19.14-.14c.01.02.05.04.1.06-.02-.2-.03-.42-.01-.63.04-.5.41-.92.8-1.02.31-.08.45-.08.49-.08.05,0,.19,0,.49.08.38.1.76.52.8,1.02.02.21,0,.43-.01.63.05-.02.09-.04.1-.06.04-.05.14-.04.14.14s-.2.33-.21.46c-.01.11,0,.33-.18.42-.03.07-.06.14-.1.22-.08.17-.21.33-.21.33,0,0-.04.05-.03.28,0,.24.1.39.28.46.03.01.05.02.07.03.01,0,.02,0,.03,0h.07c.13,0,.15,0,.54.05.29.03.45-.04.62-.11.08-.03.15-.07.25-.09.04-.01.09-.02.13-.03.22-.06.42-.11.72-.1.3.02.75.03,1.33-.08.23-.05.43-.07.59-.09.24-.03.43-.05.64-.12.17-.06.35-.19.55-.32.22-.15.46-.32.74-.43.36-.14,1.02-.3,1.46-.4.19-.04.34-.08.42-.1.22-.06.79-.35,1.09-.65.16-.32.28-.44.39-.54.08-.07.14-.14.21-.27,0,0,0-.01.01-.02.11-.1.16-.19.21-.27.07-.11.14-.22.32-.14,0,0,.01,0,.02.01.09.09.11.39-.03.56,0,.01-.02.02-.03.03.25-.08.47-.15.64-.22.1-.04.19-.07.27-.1.23-.08.38-.14.48-.11l.1.12c.04.14-.07.23-.47.41.07-.02.55-.19.65-.18s.15.19.15.19c0,.08-.07.16-.28.26.18-.05.29-.05.33.07.06.15-.02.24-.43.41.08,0,.13.02.15.1.07.19-.08.27-1.05.63-.1.04-.18.07-.27.09-.02.01-.03.02-.04.02-.29.1-.57.12-.79.13-.13,0-.24.01-.32.04-.2.06-.31.11-.64.38-.64.53-1.52,1.2-2.04,1.35-.35.1-.7.14-1.01.18-.23.03-.44.05-.58.09-.16.05-.25.1-.36.15-.03.01-.05.03-.08.04.02,0,.04,0,.06,0,.4,0,.91-.28,1.46-.31.55-.03,1.66.1,1.93.11.25,0,.91-.09,1.28-.29.43-.44.56-.33.83-.59.36-.18.39-.38.56-.23.04.07-.02.33-.18.44-.08.05-.16.1-.25.14.24,0,.61,0,.93,0,.52,0,.76-.06.77.09,0,.13-.09.18-.97.25,0,.03,0,.06,0,.09.12,0,.23,0,.34,0,.55,0,.8-.04.81.12,0,.15-.11.19-1.17.24Z"></path></svg> 