<?xml version="1.0" encoding="UTF-8"?> <svg xmlns="http://www.w3.org/2000/svg" id="Ebene_1" data-name="Ebene 1" viewBox="0 0 39.33 39.33"><defs><style> .cls-1 { fill: #1b1a18; } </style></defs><path class="cls-1" d="M15.64,19.16c.93,1.57,1.75,3.09,2.51,4.48,1.78-.4,3.48-.71,5.04-1,.17-1.81.4-3.53.6-5.1-1.67-.72-3.23-1.47-4.67-2.15-1.21,1.37-2.4,2.62-3.49,3.77Z"></path><path class="cls-1" d="M19.66,0C8.8,0,0,8.8,0,19.66s8.8,19.66,19.66,19.66,19.66-8.8,19.66-19.66S30.52,0,19.66,0ZM34.37,14.16c.43,1.08-.09,2.31-1.17,2.74-1.08.43-2.31-.09-2.74-1.17-.43-1.08.09-2.31,1.18-2.74,1.08-.43,2.31.09,2.74,1.17ZM19.18,4.29c1.16-.08,2.16.8,2.24,1.96.08,1.16-.8,2.16-1.96,2.24-1.16.08-2.16-.8-2.24-1.96-.08-1.16.8-2.16,1.96-2.24ZM5.1,15.68c.29-1.13,1.43-1.81,2.56-1.52,1.13.29,1.81,1.43,1.52,2.56-.29,1.13-1.43,1.81-2.56,1.52-1.13-.29-1.81-1.43-1.52-2.56ZM14.49,31.94c-.62.98-1.92,1.28-2.91.66-.98-.62-1.28-1.92-.66-2.91.62-.98,1.92-1.28,2.91-.66.98.62,1.28,1.92.66,2.91ZM29.67,31.66c-.89.74-2.22.62-2.97-.27-.74-.89-.62-2.22.27-2.97.89-.74,2.22-.62,2.97.27.74.89.62,2.22-.27,2.97ZM23.72,35.77c-1.02-4.72-.91-9.17-.54-13.12-3.98,1.12-6.21,3.87-5.12,13.27-1.28-6.65-4.41-9.54-12.24-7.71,4.17-2.43,8.44-3.7,12.31-4.56-2.3-3.43-5.6-4.71-14.2-.77,5.93-3.27,7.71-7.14,3.56-14.02,3.6,3.22,6.13,6.88,8.14,10.3,2.56-3.24,2.75-6.78-3.66-13.75,4.94,4.63,9.17,5.13,14.43-.95-1.95,4.42-4.65,7.95-7.28,10.93,3.88,1.43,7.3.52,11.94-7.73-2.87,6.13-2.04,10.31,5.37,13.43-4.8-.49-9-1.97-12.64-3.54-.16,4.13,1.76,7.1,11.04,8.97-6.72-.84-10.43,1.24-11.12,9.25Z"></path></svg> 