<svg xmlns="http://www.w3.org/2000/svg" viewBox="0 0 64 64" fill="none"><path d="M38.6 24H48M38.6 24V14.6M38.6 24L32 30.6M38.6 24L38.6 16.2M48 24l11.4-11.4M48 24l6-6M48 24l-1.2-.2M59.4 12.6H50V3.2M59.4 12.6l-5.4 5.4M50 3.2L38.6 14.6M50 3.2l-4.4 4.4M38.6 14.6l4.4-4.4M38.6 14.6l0 1.6M44.4 8.8C40.3 6.4 35.4 5 30.2 5C16.9 5 6 15.9 6 29.2C6 42.5 16.9 53.4 30.2 53.4C43.5 53.4 54.4 42.5 54.4 29.2c0-5.2-1.4-10.1-3.8-14.2M38.6 16.2c-2-1-4.4-1.6-6.8-1.6C22.8 14.6 17 20.4 17 27.4s5.8 12.8 12.8 12.8s12.8-5.8 12.8-12.8c0-2.4-.6-4.6-1.6-6.8" stroke="#1B1A18" stroke-width="3" stroke-linecap="round" stroke-linejoin="round"/></svg>
