<svg xmlns="http://www.w3.org/2000/svg" viewBox="0 0 64 64" fill="none"><path d="M10.5 37.5c-1.6-1.6-1.6-4.1 0-5.7s4.1-1.6 5.7 0l17.8 17.8c1.6 1.6 1.6 4.1 0 5.7c-1.6 1.6-4.1 1.6-5.7 0L10.5 37.5Z" stroke="#1B1A18" stroke-width="4" stroke-linecap="round" stroke-linejoin="round"/><path d="M18.6 38.4L33.4 23.6l6.6 6.6L25.2 45l-6.6-6.6Z" stroke="#1B1A18" stroke-width="4" stroke-linecap="round" stroke-linejoin="round"/><path d="M11.4 49.2c-1.9-1.9-1.9-5 0-6.9l1.7-1.7l12.4 12.4l-1.7 1.7c-1.9 1.9-5 1.9-6.9 0l-5.5-5.5Z" stroke="#1B1A18" stroke-width="4" stroke-linecap="round" stroke-linejoin="round"/><path d="M37.5 10.5c-1.6-1.6-4.1-1.6-5.7 0c-1.6 1.6-1.6 4.1 0 5.7l17.8 17.8c1.6 1.6 4.1 1.6 5.7 0c1.6-1.6 1.6-4.1 0-5.7L37.5 10.5Z" stroke="#1B1A18" stroke-width="4" stroke-linecap="round" stroke-linejoin="round"/><path d="M47.4 11.4c-1.9-1.9-5-1.9-6.9 0l-1.7 1.7l12.4 12.4l1.7-1.7c1.9-1.9 1.9-5 0-6.9l-5.5-5.5Z" stroke="#1B1A18" stroke-width="4" stroke-linecap="round" stroke-linejoin="round"/></svg>
