<svg xmlns="http://www.w3.org/2000/svg" viewBox="0 0 64 64" fill="none"><path d="M32 12c0 4.4-3.6 8-8 8s-8-3.6-8-8s3.6-8 8-8s8 3.6 8 8Zm0 0l4 16M24 12L20 28" stroke="#1B1A18" stroke-width="4" stroke-linecap="round" stroke-linejoin="round"/><path d="M9.2 56.7l4.7 1.2c1.3.4 2.7-.5 3-1.9l4.9-18.9c.3-1.3-.5-2.6-1.8-2.9l-4.7-1.2c-1.3-.4-2.7.5-3 1.9L7.6 53.6c-.3 1.3.5 2.7 1.6 3.1Zm45.6 0l-4.7 1.2c-1.3.4-2.7-.5-3-1.9l-4.9-18.9c-.3-1.3.5-2.6 1.8-2.9l4.7-1.2c1.3-.4 2.7.5 3 1.9l4.9 18.9c.3 1.3-.5 2.7-1.6 3.1Z" stroke="#1B1A18" stroke-width="4" stroke-linecap="round" stroke-linejoin="round"/></svg>
