<?xml version="1.0" encoding="UTF-8"?> <svg xmlns="http://www.w3.org/2000/svg" id="Ebene_2" data-name="Ebene 2" viewBox="0 0 159.7 30.48"><defs><style> .cls-1 { fill: #1b1a18; } </style></defs><g id="Ebene_1-2" data-name="Ebene 1"><g><g><path class="cls-1" d="M49.16.14h-9.48l-15.05,20.72L9.66.14H.24l19.74,27.07c3.07,4.2,5.88,4.18,8.94.04L49.16.14Z"></path><path class="cls-1" d="M24.46,30.48h0c-1.5,0-3-1.05-4.57-3.2L0,.01h9.73l.04.05,14.86,20.58L39.62,0h9.79l-.15.2-20.23,27.1c-1.58,2.13-3.07,3.16-4.57,3.16v.02ZM.49.26l19.59,26.87c1.52,2.08,2.95,3.09,4.37,3.1h0c1.41,0,2.84-1,4.36-3.06L48.91.26h-9.17l-15.12,20.81-.1-.14L9.6.26H.49Z"></path></g><g><rect class="cls-1" x="54.43" y=".14" width="7.54" height="29.74"></rect><path class="cls-1" d="M62.1,30h-7.79V.01h7.79v29.99ZM54.56,29.75h7.29V.26h-7.29v29.49Z"></path></g><g><path class="cls-1" d="M115.26.14h-9.48l-15.05,20.72L75.77.14h-9.42l19.74,27.07c3.07,4.2,5.87,4.18,8.94.04L115.26.15h0Z"></path><path class="cls-1" d="M90.56,30.48h0c-1.5,0-3-1.05-4.57-3.2L66.11,0h9.73l.04.05,14.86,20.58L105.73,0h9.79l-.15.2-20.23,27.1c-1.58,2.13-3.07,3.16-4.57,3.16v.02ZM66.59.26l19.59,26.87c1.52,2.08,2.95,3.09,4.37,3.1h0c1.41,0,2.84-1,4.37-3.06L115,.27h-9.17l-15.12,20.81-.1-.14L75.69.27h-9.11,0Z"></path></g><g><path class="cls-1" d="M124.13,8.56c1.99-1.65,4.55-2.48,7.58-2.48h9.67c3,0,5.55.83,7.56,2.48,2.08,1.7,3.14,3.91,3.14,6.57s-1.05,4.85-3.13,6.49c-1.99,1.58-4.54,2.38-7.56,2.38h-9.67c-3.03,0-5.57-.8-7.56-2.38-2.08-1.64-3.13-3.83-3.13-6.49s1.05-4.86,3.11-6.56M118.56,25.5c3.43,2.9,7.86,4.37,13.15,4.37h9.67c5.27,0,9.68-1.47,13.11-4.37,3.42-2.89,5.08-6.42,5.08-10.78s-1.63-7.78-4.99-10.48c-3.39-2.72-7.83-4.1-13.2-4.1h-9.67c-5.37,0-9.82,1.38-13.22,4.1-3.37,2.7-5.01,6.12-5.01,10.47s1.66,7.89,5.08,10.78"></path><path class="cls-1" d="M141.38,30h-9.67c-5.33,0-9.78-1.48-13.24-4.4h0c-3.45-2.92-5.12-6.48-5.12-10.88s1.65-7.85,5.06-10.57C121.84,1.41,126.31.02,131.71.02h9.67c5.4,0,9.87,1.39,13.28,4.13,3.39,2.72,5.04,6.18,5.04,10.57s-1.68,7.96-5.12,10.88c-3.45,2.92-7.89,4.4-13.19,4.4h0ZM118.64,25.41c3.41,2.88,7.8,4.34,13.07,4.34h9.67c5.24,0,9.62-1.46,13.03-4.34,3.39-2.87,5.04-6.36,5.04-10.69s-1.62-7.71-4.94-10.38c-3.37-2.7-7.78-4.08-13.12-4.08h-9.67c-5.34,0-9.76,1.37-13.15,4.08-3.34,2.67-4.96,6.07-4.96,10.38s1.65,7.82,5.04,10.69h0ZM141.38,24.11h-9.67c-3.06,0-5.63-.81-7.64-2.4-2.11-1.67-3.18-3.88-3.18-6.59s1.06-4.93,3.16-6.66h0c2.02-1.67,4.59-2.51,7.66-2.51h9.67c3.03,0,5.6.84,7.64,2.51,2.11,1.73,3.18,3.97,3.18,6.66s-1.07,4.92-3.18,6.59c-2.01,1.59-4.58,2.4-7.64,2.4ZM124.21,8.65c-2.03,1.68-3.06,3.85-3.06,6.47s1.04,4.77,3.08,6.39c1.97,1.56,4.49,2.35,7.49,2.35h9.67c3,0,5.52-.79,7.48-2.35,2.05-1.62,3.08-3.77,3.08-6.39s-1.04-4.79-3.09-6.47c-1.99-1.62-4.5-2.45-7.48-2.45h-9.67c-3.01,0-5.53.82-7.5,2.45h0Z"></path></g></g></g></svg> 