<?xml version="1.0" encoding="UTF-8"?> <svg xmlns="http://www.w3.org/2000/svg" id="Ebene_2" data-name="Ebene 2" viewBox="0 0 181.53 32.01"><defs><style> .cls-1 { fill: #1b1a18; } </style></defs><g id="Ebene_1-2" data-name="Ebene 1"><g><g><polygon class="cls-1" points="1 1.25 12.17 1.25 12.17 4.3 5.02 4.3 5.02 14.03 10.82 14.03 10.82 16.93 5.02 16.93 5.02 27.71 12.24 27.71 12.24 30.65 1 30.65 1 1.25"></polygon><path class="cls-1" d="M13.24,31.65H0V.25h13.16v5.05h-7.15v7.73h5.79v4.9h-5.79v8.78h7.22v4.94h0ZM2,29.65h9.24v-.94h-7.22v-12.78h5.79v-.9h-5.79V3.3h7.15v-1.05H2.01v27.39h0Z"></path></g><g><polygon class="cls-1" points="22.84 15.26 16.94 1.25 20.67 1.25 25.05 11.63 29.03 1.25 32.76 1.25 26.72 15.59 33.05 30.65 29.31 30.65 24.62 19.58 20.57 30.65 16.83 30.65 22.84 15.26"></polygon><path class="cls-1" d="M34.55,31.65h-5.9l-3.96-9.35-3.42,9.35h-5.9l6.39-16.37L15.43.26h5.9l3.67,8.7L28.34.26h5.93l-6.47,15.33s6.75,16.06,6.75,16.06ZM29.98,29.65h1.57l-5.91-14.06,5.62-13.33h-1.54l-4.63,12.06-5.08-12.06h-1.56l5.47,12.99-5.62,14.4h1.57l4.68-12.79,5.42,12.79h0Z"></path></g><g><path class="cls-1" d="M36.75,21.21v-10.38c0-5.95,1.64-9.83,7.75-9.83,5.37,0,7.25,3.16,7.25,8.46v2.32h-3.8v-2.07c0-3.27-.07-5.52-3.41-5.52s-3.73,2.39-3.73,6.02v11.65c0,4.43.96,5.88,3.73,5.88,3.24,0,3.41-2.36,3.41-5.84v-2.18h3.8v2.18c0,5.41-1.6,9.07-7.25,9.07-6.12,0-7.75-4.28-7.75-9.76"></path><path class="cls-1" d="M44.5,31.97c-5.81,0-8.75-3.62-8.75-10.76v-10.38c0-4.65.91-10.83,8.75-10.83,5.55,0,8.25,3.09,8.25,9.46v3.32h-5.8v-3.07c0-3.66-.22-4.52-2.41-4.52s-2.73.94-2.73,5.02v11.65c0,4.55,1.03,4.88,2.73,4.88,2.01,0,2.41-.81,2.41-4.84v-3.18h5.8v3.18c0,2.49,0,10.07-8.25,10.07ZM44.5,2c-4.86,0-6.75,2.48-6.75,8.83v10.38c0,6.06,2.08,8.76,6.75,8.76s6.25-2.34,6.25-8.07v-1.18h-1.8v1.18c0,3.05,0,6.84-4.41,6.84-3.93,0-4.73-2.75-4.73-6.88v-11.65c0-2.96,0-7.02,4.73-7.02,4.41,0,4.41,3.46,4.41,6.52v1.07h1.8v-1.32c0-5.23-1.87-7.46-6.25-7.46Z"></path></g><g><rect class="cls-1" x="58.14" y="1.25" width="3.95" height="29.39"></rect><path class="cls-1" d="M63.08,31.65h-5.95V.25h5.95v31.39h0ZM59.14,29.65h1.95V2.25h-1.95v27.39h0Z"></path></g><g><polygon class="cls-1" points="72.24 4.3 67.37 4.3 67.37 1.25 80.98 1.25 80.98 4.3 76.26 4.3 76.26 30.65 72.24 30.65 72.24 4.3"></polygon><path class="cls-1" d="M77.26,31.65h-6.02V5.3h-4.87V.25h15.62v5.05h-4.73v26.35ZM73.24,29.65h2.02V3.3h4.73v-1.05h-11.62v1.05h4.87v26.35Z"></path></g><g><rect class="cls-1" x="86.3" y="1.25" width="3.95" height="29.39"></rect><path class="cls-1" d="M91.25,31.65h-5.95V.25h5.95v31.39h0ZM87.3,29.65h1.95V2.25h-1.95v27.39h0Z"></path></g><g><polygon class="cls-1" points="97.24 1.25 99.98 1.25 108.16 20.78 108.16 1.25 111.5 1.25 111.5 30.65 108.94 30.65 100.65 10.58 100.65 30.65 97.24 30.65 97.24 1.25"></polygon><path class="cls-1" d="M112.5,31.65h-4.23l-6.62-16.02v16.02h-5.41V.25h4.4l6.51,15.55V.25h5.34v31.39h.01ZM109.61,29.65h.89V2.25h-1.34v23.5l-9.84-23.5h-1.07v27.39h1.41V5.54l9.95,24.11h0Z"></path></g><g><path class="cls-1" d="M117.81,20.99v-9.83c0-6.42,1.64-10.16,7.72-10.16,5.4,0,7.5,2.76,7.5,8.56v1.09h-3.77v-.91c0-3.81-.43-5.55-3.66-5.55-3.56,0-3.77,2.72-3.77,6.35v10.89c0,4.25.71,6.31,3.88,6.31s3.91-2.29,3.91-6.71v-2.03h-3.66v-2.9h7.29v14.55h-2.52l-.39-3.37c-.78,2.18-2.28,3.74-5.12,3.74-5.4,0-7.4-3.66-7.4-10.02"></path><path class="cls-1" d="M125.21,32.01c-5.65,0-8.4-3.6-8.4-11.02v-9.83C116.81,5.64,117.85,0,125.53,0,131.33,0,134.03,3.04,134.03,9.56v2.09h-5.77v-1.91c0-4.02-.54-4.55-2.66-4.55-2.39,0-2.77,1.27-2.77,5.35v10.89c0,4.55.89,5.31,2.88,5.31s2.91-.88,2.91-5.71v-1.03h-3.66v-4.9h9.29v16.55h-4.42l-.16-1.36c-1.12,1.14-2.61,1.72-4.46,1.72h0ZM125.53,2c-4.9,0-6.72,2.48-6.72,9.16v9.83c0,6.32,1.91,9.02,6.4,9.02,2.01,0,3.31-.89,4.08-2.81-.74.96-1.86,1.54-3.58,1.54-4.5,0-4.88-3.78-4.88-7.31v-10.89c0-3.1,0-7.35,4.77-7.35,4.27,0,4.66,2.92,4.66,6.46h1.77v-.09c0-5.44-1.82-7.56-6.5-7.56h0ZM131.61,29.65h.63v-12.55h-5.29v.9h3.66v3.03c0,1.02-.04,2.02-.17,2.94l.38-1.06.78,6.73h.01Z"></path></g><g><polygon class="cls-1" points="141.24 1.25 152.37 1.25 152.37 4.19 145.25 4.19 145.25 13.99 150.77 13.99 150.77 16.89 145.25 16.89 145.25 30.65 141.24 30.65 141.24 1.25"></polygon><path class="cls-1" d="M146.25,31.65h-6.02V.25h13.13v4.94h-7.11v7.8h5.51v4.9h-5.51v13.75h0ZM142.24,29.65h2.02v-13.75h5.51v-.9h-5.51V3.19h7.11v-.94h-9.13v27.39h0Z"></path></g><g><rect class="cls-1" x="157.68" y="1.25" width="3.95" height="29.39"></rect><path class="cls-1" d="M162.63,31.65h-5.95V.25h5.95v31.39h0ZM158.68,29.65h1.95V2.25h-1.95v27.39h0Z"></path></g><g><polygon class="cls-1" points="171.79 4.3 166.91 4.3 166.91 1.25 180.53 1.25 180.53 4.3 175.8 4.3 175.8 30.65 171.79 30.65 171.79 4.3"></polygon><path class="cls-1" d="M176.8,31.65h-6.02V5.3h-4.87V.25h15.62v5.05h-4.73v26.35ZM172.79,29.65h2.02V3.3h4.73v-1.05h-11.62v1.05h4.87v26.35Z"></path></g></g></g></svg> 